<svg width="31" height="30" viewBox="0 0 31 30" fill="none" xmlns="http://www.w3.org/2000/svg">
<path d="M15.9297 13.5509C16.9179 13.5509 17.8839 13.2577 18.7056 12.7083C19.5273 12.1588 20.1677 11.378 20.5459 10.4643C20.9241 9.55069 21.023 8.54536 20.8302 7.57545C20.6374 6.60555 20.1616 5.71463 19.4628 5.01537C18.764 4.31611 17.8737 3.83991 16.9045 3.64698C15.9352 3.45405 14.9306 3.55307 14.0176 3.93151C13.1046 4.30995 12.3242 4.95081 11.7752 5.77305C11.2261 6.5953 10.9331 7.562 10.9331 8.55091C10.9331 9.87699 11.4595 11.1488 12.3966 12.0864C13.3336 13.0241 14.6045 13.5509 15.9297 13.5509Z" fill="white"/>
<path d="M23.4244 24.8672C23.7557 24.8672 24.0734 24.7355 24.3077 24.5011C24.5419 24.2667 24.6735 23.9487 24.6735 23.6172C24.6735 21.2965 23.7523 19.0709 22.1125 17.43C20.4727 15.7891 18.2486 14.8672 15.9295 14.8672C13.6105 14.8672 11.3864 15.7891 9.7466 17.43C8.10679 19.0709 7.18555 21.2965 7.18555 23.6172C7.18555 23.9487 7.31715 24.2667 7.55141 24.5011C7.78567 24.7355 8.1034 24.8672 8.43469 24.8672H23.4244Z" fill="white"/>
</svg>
