<svg width="29" height="29" viewBox="0 0 29 29" fill="none" xmlns="http://www.w3.org/2000/svg">
<path d="M15.2169 9.3644C16.1483 9.3644 17.0415 9.73438 17.7 10.3929C18.3586 11.0515 18.7286 11.9447 18.7286 12.876C18.7286 13.1865 18.8519 13.4842 19.0714 13.7037C19.2909 13.9233 19.5887 14.0466 19.8991 14.0466C20.2096 14.0466 20.5073 13.9233 20.7268 13.7037C20.9463 13.4842 21.0697 13.1865 21.0697 12.876C21.0697 11.3238 20.453 9.83514 19.3554 8.73754C18.2578 7.63994 16.7692 7.02332 15.2169 7.02332C14.9065 7.02332 14.6088 7.14664 14.3892 7.36616C14.1697 7.58568 14.0464 7.88341 14.0464 8.19386C14.0464 8.50431 14.1697 8.80204 14.3892 9.02156C14.6088 9.24108 14.9065 9.3644 15.2169 9.3644Z" fill="#FFA800"/>
<path d="M15.2169 4.68215C17.3901 4.68215 19.4742 5.54543 21.0108 7.08207C22.5475 8.6187 23.4107 10.7028 23.4107 12.876C23.4107 13.1864 23.5341 13.4841 23.7536 13.7037C23.9731 13.9232 24.2708 14.0465 24.5813 14.0465C24.8917 14.0465 25.1895 13.9232 25.409 13.7037C25.6285 13.4841 25.7518 13.1864 25.7518 12.876C25.7518 10.0819 24.6419 7.40234 22.6662 5.42667C20.6906 3.45099 18.011 2.34106 15.2169 2.34106C14.9065 2.34106 14.6088 2.46439 14.3892 2.68391C14.1697 2.90343 14.0464 3.20116 14.0464 3.51161C14.0464 3.82206 14.1697 4.11979 14.3892 4.33931C14.6088 4.55883 14.9065 4.68215 15.2169 4.68215Z" fill="#FFA800"/>
<path d="M25.4591 18.6233C25.3947 18.4354 25.2836 18.267 25.1361 18.1339C24.9887 18.0008 24.8098 17.9074 24.6163 17.8625L17.593 16.2588C17.4024 16.2156 17.204 16.2208 17.0158 16.274C16.8277 16.3271 16.6559 16.4266 16.5161 16.5632C16.3522 16.7154 16.3405 16.7271 15.5797 18.1785C13.055 17.0152 11.0321 14.9839 9.87913 12.4546C11.3657 11.7054 11.3774 11.7054 11.5296 11.5298C11.6662 11.39 11.7656 11.2182 11.8188 11.0301C11.872 10.842 11.8772 10.6436 11.8339 10.4529L10.2303 3.51161C10.1854 3.31811 10.092 3.13922 9.95889 2.99178C9.82579 2.84434 9.65735 2.7332 9.46944 2.66882C9.19608 2.57118 8.91379 2.50061 8.62664 2.45812C8.33079 2.38952 8.02889 2.35031 7.72533 2.34106C6.29727 2.34106 4.9277 2.90836 3.91791 3.91815C2.90811 4.92794 2.34082 6.29751 2.34082 7.72557C2.34701 12.5046 4.24821 17.086 7.62747 20.4653C11.0067 23.8446 15.5882 25.7458 20.3672 25.752C21.0743 25.752 21.7745 25.6127 22.4278 25.3421C23.081 25.0715 23.6746 24.6749 24.1746 24.1749C24.6746 23.6749 25.0712 23.0813 25.3418 22.428C25.6124 21.7747 25.7517 21.0746 25.7517 20.3675C25.7521 20.0695 25.7286 19.772 25.6815 19.4778C25.6323 19.1871 25.5579 18.9012 25.4591 18.6233Z" fill="#FFA800"/>
</svg>
