<svg width="32" height="32" viewBox="0 0 32 32" fill="none" xmlns="http://www.w3.org/2000/svg">
<path d="M29.2189 15.9376C29.2189 14.1934 28.8753 12.4664 28.2079 10.855C27.5404 9.24366 26.5621 7.77954 25.3289 6.54626C24.0956 5.31297 22.6315 4.33468 21.0201 3.66723C19.4087 2.99978 17.6817 2.65625 15.9376 2.65625C12.4151 2.65625 9.03698 4.05553 6.54626 6.54626C4.05553 9.03698 2.65625 12.4151 2.65625 15.9376C2.65625 19.46 4.05553 22.8381 6.54626 25.3289C9.03698 27.8196 12.4151 29.2189 15.9376 29.2189C19.46 29.2189 22.8381 27.8196 25.3289 25.3289C27.8196 22.8381 29.2189 19.46 29.2189 15.9376ZM26.4696 14.6094H22.5782C22.3592 11.4859 21.289 8.4819 19.4837 5.92345C21.3384 6.58216 22.9736 7.74309 24.2072 9.27677C25.4407 10.8105 26.2239 12.6566 26.4696 14.6094ZM12.0594 17.2657H19.922C19.5821 20.5469 18.1835 23.6285 15.9376 26.0446C13.6931 23.6385 12.3266 20.5452 12.0594 17.2657ZM12.0594 14.6094C12.3687 11.3447 13.7297 8.26856 15.9376 5.84376C18.2016 8.24253 19.6034 11.3263 19.922 14.6094H12.0594ZM12.5375 5.88361C10.7227 8.45623 9.63531 11.4707 9.38987 14.6094H5.40548C5.65637 12.6325 6.45817 10.766 7.71931 9.22302C8.98044 7.68007 10.6501 6.52288 12.5375 5.88361ZM5.40548 17.2657H9.38987C9.60861 20.4018 10.6886 23.4166 12.511 25.9782C10.6303 25.3358 8.96751 24.1789 7.71147 22.6388C6.45544 21.0986 5.65652 19.2371 5.40548 17.2657ZM19.4173 25.9649C21.2347 23.4026 22.3267 20.3971 22.5782 17.2657H26.4962C26.245 19.2316 25.449 21.0882 24.1981 22.6254C22.9471 24.1627 21.2911 25.3195 19.4173 25.9649Z" fill="#FFA800"/>
</svg>
