<svg width="30" height="30" viewBox="0 0 30 30" fill="none" xmlns="http://www.w3.org/2000/svg">
<path d="M4.99646 16.2499C5.68634 16.2499 6.2456 15.6903 6.2456 14.9999C6.2456 14.3096 5.68634 13.7499 4.99646 13.7499C4.30657 13.7499 3.74731 14.3096 3.74731 14.9999C3.74731 15.6903 4.30657 16.2499 4.99646 16.2499Z" fill="white"/>
<path d="M25.0574 13.7499H9.91785C9.26936 13.7499 8.74365 14.276 8.74365 14.9249V15.0749C8.74365 15.7239 9.26936 16.2499 9.91785 16.2499H25.0574C25.7059 16.2499 26.2316 15.7239 26.2316 15.0749V14.9249C26.2316 14.276 25.7059 13.7499 25.0574 13.7499Z" fill="white"/>
<path d="M25.0577 20H4.92151C4.27302 20 3.74731 20.5261 3.74731 21.175V21.325C3.74731 21.9739 4.27302 22.5 4.92151 22.5H25.0577C25.7062 22.5 26.2319 21.9739 26.2319 21.325V21.175C26.2319 20.5261 25.7062 20 25.0577 20Z" fill="white"/>
<path d="M25.0577 7.5H4.92151C4.27302 7.5 3.74731 8.02607 3.74731 8.675V8.825C3.74731 9.47393 4.27302 10 4.92151 10H25.0577C25.7062 10 26.2319 9.47393 26.2319 8.825V8.675C26.2319 8.02607 25.7062 7.5 25.0577 7.5Z" fill="white"/>
</svg>
