<svg width="19" height="24" viewBox="0 0 19 24" fill="none" xmlns="http://www.w3.org/2000/svg">
<path d="M18.2515 6.54452L13.3279 0.922237C13.2242 0.805752 13.0977 0.712559 12.9563 0.648652C12.815 0.584745 12.6621 0.551538 12.5073 0.551167H3.63595C3.26751 0.54671 2.90182 0.615891 2.55975 0.754757C2.21768 0.893623 1.90593 1.09946 1.64232 1.3605C1.3787 1.62154 1.16838 1.93269 1.02336 2.27616C0.878339 2.61963 0.801462 2.98871 0.797119 3.36231V20.2292C0.801462 20.6028 0.878339 20.9718 1.02336 21.3153C1.16838 21.6588 1.3787 21.9699 1.64232 22.231C1.90593 22.492 2.21768 22.6979 2.55975 22.8367C2.90182 22.9756 3.26751 23.0448 3.63595 23.0403H15.701C16.0694 23.0448 16.4351 22.9756 16.7772 22.8367C17.1193 22.6979 17.431 22.492 17.6946 22.231C17.9583 21.9699 18.1686 21.6588 18.3136 21.3153C18.4586 20.9718 18.5355 20.6028 18.5398 20.2292V7.29791C18.5391 7.01923 18.4364 6.75075 18.2515 6.54452ZM6.34172 11.7957H9.66848C9.96258 11.7957 10.2446 11.9142 10.4526 12.1251C10.6606 12.336 10.7774 12.622 10.7774 12.9202C10.7774 13.2184 10.6606 13.5044 10.4526 13.7153C10.2446 13.9262 9.96258 14.0447 9.66848 14.0447H6.34172C6.04762 14.0447 5.76556 13.9262 5.55759 13.7153C5.34963 13.5044 5.2328 13.2184 5.2328 12.9202C5.2328 12.622 5.34963 12.336 5.55759 12.1251C5.76556 11.9142 6.04762 11.7957 6.34172 11.7957ZM12.9952 18.5425H6.34172C6.04762 18.5425 5.76556 18.424 5.55759 18.2131C5.34963 18.0023 5.2328 17.7162 5.2328 17.418C5.2328 17.1198 5.34963 16.8338 5.55759 16.6229C5.76556 16.412 6.04762 16.2936 6.34172 16.2936H12.9952C13.2893 16.2936 13.5714 16.412 13.7794 16.6229C13.9873 16.8338 14.1042 17.1198 14.1042 17.418C14.1042 17.7162 13.9873 18.0023 13.7794 18.2131C13.5714 18.424 13.2893 18.5425 12.9952 18.5425ZM12.6737 7.29791C12.445 7.27508 12.2344 7.16212 12.0872 6.98334C11.9399 6.80457 11.8678 6.5743 11.8863 6.34212V2.80008L16.0337 7.29791H12.6737Z" fill="white"/>
</svg>
