<svg width="31" height="30" viewBox="0 0 31 30" fill="none" xmlns="http://www.w3.org/2000/svg">
<path d="M26.2121 18.4018L24.0808 16.3666V11.3518C24.1091 9.48956 23.427 7.68048 22.1604 6.25858C20.8937 4.83668 19.1281 3.89799 17.1896 3.61584C16.0645 3.47514 14.9207 3.56391 13.8347 3.87623C12.7486 4.18854 11.7451 4.71722 10.8912 5.42699C10.0373 6.13677 9.35268 7.01131 8.88292 7.99226C8.41316 8.97322 8.1691 10.038 8.16703 11.1157V16.3666L6.03572 18.4018C5.76801 18.6603 5.58647 18.988 5.51379 19.3439C5.44111 19.6998 5.48051 20.0681 5.62708 20.4029C5.77364 20.7376 6.02086 21.0239 6.33783 21.226C6.65481 21.428 7.02747 21.5369 7.40923 21.5389H11.3877V21.9212C11.443 23.0627 11.9725 24.1369 12.8603 24.9083C13.7481 25.6796 14.9217 26.0854 16.1239 26.0366C17.3261 26.0854 18.4997 25.6796 19.3875 24.9083C20.2753 24.1369 20.8048 23.0627 20.8601 21.9212V21.5389H24.8386C25.2203 21.5369 25.593 21.428 25.91 21.226C26.2269 21.0239 26.4742 20.7376 26.6207 20.4029C26.7673 20.0681 26.8067 19.6998 26.734 19.3439C26.6613 18.988 26.4798 18.6603 26.2121 18.4018ZM18.492 21.9212C18.4264 22.4621 18.1435 22.958 17.7023 23.3057C17.2612 23.6534 16.6958 23.8261 16.1239 23.7877C15.552 23.8261 14.9866 23.6534 14.5455 23.3057C14.1043 22.958 13.8215 22.4621 13.7558 21.9212V21.5389H18.492V21.9212Z" fill="white"/>
</svg>
