<svg width="31" height="31" viewBox="0 0 31 31" fill="none" xmlns="http://www.w3.org/2000/svg">
<path d="M9.04156 18.3161V3.87528C9.04156 3.53271 8.90547 3.20417 8.66324 2.96194C8.421 2.7197 8.09246 2.58362 7.74989 2.58362C7.40732 2.58362 7.07878 2.7197 6.83654 2.96194C6.59431 3.20417 6.45822 3.53271 6.45822 3.87528V18.3161C5.71015 18.5876 5.06382 19.0829 4.60706 19.7346C4.1503 20.3863 3.90527 21.1628 3.90527 21.9586C3.90527 22.7544 4.1503 23.531 4.60706 24.1827C5.06382 24.8343 5.71015 25.3296 6.45822 25.6011V27.1253C6.45822 27.4679 6.59431 27.7964 6.83654 28.0386C7.07878 28.2809 7.40732 28.417 7.74989 28.417C8.09246 28.417 8.421 28.2809 8.66324 28.0386C8.90547 27.7964 9.04156 27.4679 9.04156 27.1253V25.6011C9.78963 25.3296 10.436 24.8343 10.8927 24.1827C11.3495 23.531 11.5945 22.7544 11.5945 21.9586C11.5945 21.1628 11.3495 20.3863 10.8927 19.7346C10.436 19.0829 9.78963 18.5876 9.04156 18.3161Z" fill="#FFA800"/>
<path d="M27.1254 16.7917C27.1231 15.9922 26.8737 15.213 26.4112 14.5609C25.9487 13.9088 25.2958 13.4157 24.542 13.1492V3.87504C24.542 3.53247 24.406 3.20393 24.1637 2.96169C23.9215 2.71946 23.5929 2.58337 23.2504 2.58337C22.9078 2.58337 22.5793 2.71946 22.337 2.96169C22.0948 3.20393 21.9587 3.53247 21.9587 3.87504V13.1492C21.2106 13.4207 20.5643 13.916 20.1075 14.5677C19.6508 15.2194 19.4058 15.9959 19.4058 16.7917C19.4058 17.5875 19.6508 18.3641 20.1075 19.0157C20.5643 19.6674 21.2106 20.1627 21.9587 20.4342V27.125C21.9587 27.4676 22.0948 27.7962 22.337 28.0384C22.5793 28.2806 22.9078 28.4167 23.2504 28.4167C23.5929 28.4167 23.9215 28.2806 24.1637 28.0384C24.406 27.7962 24.542 27.4676 24.542 27.125V20.4342C25.2958 20.1677 25.9487 19.6746 26.4112 19.0225C26.8737 18.3704 27.1231 17.5912 27.1254 16.7917Z" fill="#FFA800"/>
<path d="M19.3755 6.45839C19.3775 5.74752 19.1839 5.0498 18.8159 4.44158C18.4479 3.83337 17.9197 3.3381 17.2891 3.00999C16.6585 2.68187 15.9497 2.53354 15.2405 2.58125C14.5312 2.62895 13.8487 2.87084 13.2677 3.28044C12.6867 3.69005 12.2296 4.25159 11.9463 4.9036C11.6631 5.55561 11.5647 6.27297 11.6619 6.97717C11.759 7.68137 12.048 8.34528 12.4973 8.89622C12.9465 9.44717 13.5386 9.86393 14.2088 10.1009V27.1251C14.2088 27.4676 14.3449 27.7962 14.5871 28.0384C14.8294 28.2806 15.1579 28.4167 15.5005 28.4167C15.843 28.4167 16.1716 28.2806 16.4138 28.0384C16.6561 27.7962 16.7921 27.4676 16.7921 27.1251V10.1009C17.5459 9.8344 18.1988 9.3413 18.6613 8.68918C19.1238 8.03707 19.3732 7.25786 19.3755 6.45839Z" fill="#FFA800"/>
</svg>
