<svg width="32" height="32" viewBox="0 0 32 32" fill="none" xmlns="http://www.w3.org/2000/svg">
<path d="M15.9377 29.0197C15.4735 29.027 15.0156 28.9125 14.6095 28.6877L14.2111 28.4619C11.1076 26.706 8.52571 24.158 6.72903 21.078C4.93235 17.998 3.98526 14.4963 3.98448 10.9305V10.7446C3.98027 10.2743 4.10101 9.81131 4.33436 9.40295C4.5677 8.99459 4.90529 8.65552 5.31261 8.42037L14.6095 3.18754C15.0133 2.9544 15.4714 2.83167 15.9377 2.83167C16.4039 2.83167 16.862 2.9544 17.2658 3.18754L26.5627 8.42037C26.97 8.65552 27.3076 8.99459 27.541 9.40295C27.7743 9.81131 27.895 10.2743 27.8908 10.7446V10.9305C27.8874 14.4989 26.9363 18.0024 25.1348 21.0826C23.3333 24.1629 20.7461 26.7094 17.6377 28.4619L17.2392 28.6877C16.841 28.908 16.3928 29.0223 15.9377 29.0197Z" fill="#FFA800"/>
</svg>
